<svg version="1.1" xmlns="http://www.w3.org/2000/svg" style="display: block;" viewBox="0 0 1200 1200" width="300" height="300" preserveAspectRatio="none">
<path transform="translate(0,0)" fill="rgb(49,49,134)" d="M 462.261 689.944 L 460.663 689.213 C 455.201 689.724 424.292 724.03 417.62 729.456 C 411.268 734.622 377.292 766.434 376.119 772.56 C 379.258 780.889 409.784 799.435 418.26 806.078 C 442.127 824.783 466.278 843.727 489.342 863.427 C 507.676 879.087 523.311 900.085 541.52 915.669 C 543.783 917.595 545.072 918.467 545.374 921.237 C 537.545 924.281 503.306 902.321 494.71 897.29 L 445.052 868.742 L 381.8 832.446 C 345.504 811.998 311.59 796.511 292.292 756.601 C 278.7 728.493 279.599 694.297 279.956 663.787 C 280.578 603.891 278.356 543.667 281.979 483.883 C 282.503 475.247 285.886 463.392 288.301 455.031 C 303.495 402.428 364.806 379.029 407.969 353.073 C 437.108 335.55 468.313 319.475 497.468 301.559 C 515.191 290.667 534.745 276.466 555.714 273.463 C 576.358 271.143 601.458 269.917 621.27 277.636 C 648.052 288.071 671.924 307.452 698.094 319.961 C 704.246 322.902 712.896 329.347 719.097 332.978 L 791.765 374.749 C 856.176 412.117 858.934 413.485 883.977 482.213 C 886.813 487.484 885.333 488.993 886.978 492.297 C 873.323 500.577 857.203 509.627 844.026 518.035 C 808.269 540.698 774.11 565.788 741.788 593.128 C 729.239 603.584 711.411 618.382 700.358 630.398 C 698.094 628.025 697.944 626.803 696.917 623.713 C 696.987 623.14 697.092 622.427 697.067 621.86 C 694.354 560.749 664.878 530.372 606.117 527.525 C 628.598 514.068 647.125 486.69 643.064 455.78 C 642.758 453.449 639.832 452.353 640.706 449.054 C 645.697 450.088 643.682 452.543 647.777 453.563 C 653.859 444.556 649.67 408.303 652.243 403.87 C 656.179 404.377 658.847 405.494 660.773 401.557 C 666.249 402.851 668.257 404.155 673.127 402.369 C 673.625 402.537 674.125 402.697 674.628 402.851 C 678.601 404.069 681.076 404.606 684.703 402.666 L 684.917 400.829 C 689.46 400.604 690.267 400.656 694.25 398.479 C 699.932 400.694 708.296 405.061 713.728 402.961 L 715.132 401.585 C 720.789 402.263 728.982 403.809 734.208 402.339 C 743.643 405.227 750.3 405.179 759.959 405.031 C 737.355 388.805 695.223 373.566 668.581 362.364 C 659.729 358.642 650.434 353.282 641.478 349.161 C 619.015 338.947 596.452 328.954 573.793 319.182 C 563.571 322.154 463.613 370.066 460.548 373.661 C 457.965 381.627 458.716 391.072 458.86 399.446 C 459.211 419.793 458.003 440.068 457.453 460.388 C 457.345 464.372 458.156 467.94 461.482 470.283 C 468.134 465.467 462.96 412.678 463.938 402.317 C 464.311 398.366 464.285 386.272 464.109 382.219 L 464.448 382.668 C 470.444 390.486 483.013 398.073 492.064 401.468 C 490.23 415.068 489.824 417.011 490.191 430.968 L 497.994 442.177 C 500.504 442.855 506.97 444.248 508.557 445.828 C 504.569 449.03 502.017 448.656 502.032 452.848 C 502.103 472.858 505.257 493.864 517.407 509.986 L 518.017 510.657 C 525.862 519.135 536.856 526.639 547.866 530.392 L 547.194 531.545 C 543.54 531.853 535.681 530.104 532.363 528.638 C 505.206 536.745 483.927 539.076 467.748 568.59 C 449.376 602.101 455.504 644.523 465.078 679.857 C 465.466 681.29 466.046 682.779 466.642 684.129 C 465.919 686.67 465.62 689.674 462.261 689.944 z"/>
<path transform="translate(0,0)" fill="rgb(1,0,3)" d="M 517.407 509.986 L 518.017 510.657 C 525.862 519.135 536.856 526.639 547.866 530.392 L 547.194 531.545 C 543.54 531.853 535.681 530.104 532.363 528.638 C 523.058 523.4 521.775 519.473 517.407 509.986 z"/>
<path transform="translate(0,0)" fill="rgb(29,43,65)" d="M 570.455 586.468 C 570.494 582.181 569.513 577.409 568.714 573.159 C 566.686 562.38 565.746 551.804 564.99 540.913 C 564.99 540.913 563.18 538.852 562.985 538.63 C 560.69 537.939 558.701 537.72 557.237 535.735 L 557.229 535.744 C 563.778 534.539 584.767 533.812 591.185 534.502 C 588.991 536.788 587.798 537.014 584.756 537.791 C 584.264 538.369 583.772 538.947 583.28 539.525 C 583.183 549.888 580.277 570.658 580.037 579.78 C 577.129 581.575 575.521 583.673 573.233 586.203 C 571.94 584.194 572.589 583.463 572.974 580.572 C 570.825 582.698 571.246 583.226 570.455 586.468 z"/>
<path transform="translate(0,0)" fill="rgb(1,0,3)" fill-opacity="0.984314" d="M 570.455 586.468 C 571.246 583.226 570.825 582.698 572.974 580.572 C 572.589 583.463 571.94 584.194 573.233 586.203 C 575.521 583.673 577.129 581.575 580.037 579.78 C 578.43 592.851 576.561 610.929 573.323 623.499 C 565.843 652.533 553.36 680.693 542.508 708.562 C 542.574 708.394 528.046 732.96 528.5 732.476 C 528.151 731.826 571.795 630.408 571.518 617.573 C 571.41 612.531 570.361 589.703 570.455 586.468 z"/>
<path transform="translate(0,0)" fill="rgb(125,114,143)" fill-opacity="0.843137" d="M 588.246 435.471 C 569.464 429.271 564.397 433.43 545.602 435.882 C 540.7 436.521 534.749 436.506 530.224 437.1 C 524.855 437.805 520.228 442.476 513.695 440.171 L 514.801 438.843 C 531.501 435.737 553.015 429.391 570.695 428.583 C 579.514 428.179 588.093 433.13 596.269 433.393 L 597.344 433.418 C 593.916 435.326 592.076 435.207 588.246 435.471 z"/>
<path transform="translate(0,0)" fill="rgb(1,0,3)" d="M 538.344 380.268 C 550.586 378.995 571.703 381.71 585.143 380.522 C 592.425 379.878 604.898 380.815 610.465 386.333 L 609.291 387.778 C 590.802 378.616 557.207 386.874 537.962 382.043 L 538.344 380.268 z"/>
<path transform="translate(0,0)" fill="rgb(1,0,3)" d="M 597.344 433.418 C 610.095 432.015 625.158 440.608 636.1 446.274 L 635.658 447.094 C 630.304 446.97 628.027 445.907 623.475 443.16 C 612.803 436.719 599.278 437.848 588.246 435.471 C 592.076 435.207 593.916 435.326 597.344 433.418 z"/>
<path transform="translate(0,0)" fill="rgb(1,0,3)" d="M 591.185 534.502 C 594.077 530.726 597.665 527.982 602.815 529.427 L 602.964 531.189 C 599.035 532.217 595.022 533.188 591.185 534.502 z"/>
<path transform="translate(0,0)" fill="rgb(29,43,65)" d="M 885.333 648.352 C 891.508 645.162 926.265 637.197 931.778 640.279 C 930.081 642.548 897.928 660.84 894.93 660.978 C 891.409 663.504 885.883 669.053 882.547 672.211 C 880.224 694.175 883.7 716.322 877.601 738.369 C 864.536 785.601 831.503 803.43 792.029 825.735 L 735.922 857.782 L 669.855 896.83 C 627.447 921.722 614.44 931.451 564.296 927.574 C 565.879 921.579 569.473 912.905 572.294 907.361 C 608.889 835.465 662.696 769.818 728.664 722.96 C 733.733 719.359 738.007 714.988 743.041 711.379 C 778.39 690.299 814.458 671.909 853.106 657.576 C 863.179 653.866 874.741 652.124 885.333 648.352 z"/>
<path transform="translate(0,0)" fill="rgb(1,0,3)" d="M 885.333 648.352 C 891.508 645.162 926.265 637.197 931.778 640.279 C 930.081 642.548 897.928 660.84 894.93 660.978 L 894.732 660.117 C 895.468 658.804 906.646 653.209 909.077 651.733 C 908.987 648.864 909.207 649.94 907.627 647.369 C 902.656 644.554 895.033 647.26 889.302 648.582 L 892.318 649.483 L 891.378 650.753 C 887.623 651.088 889.174 651.432 885.333 648.352 z"/>
<path transform="translate(0,0)" fill="rgb(1,0,3)" fill-opacity="0.988235" d="M 696.917 623.713 C 697.944 626.803 698.094 628.025 700.358 630.398 C 687.5 645.471 665.68 664.495 650.973 680.585 C 621.011 713.494 592.61 747.792 565.863 783.364 C 560.678 790.352 556.705 797.316 551.968 803.823 C 535.018 783.604 518.294 762.54 502.153 741.676 C 492.855 729.657 468.707 702.639 462.261 689.944 C 465.62 689.674 465.919 686.67 466.642 684.129 C 471.881 693.666 481.642 704.673 488.717 713.413 C 510.291 740.062 531.268 767.53 552.456 794.401 C 566.654 760.721 668.44 649.816 696.917 623.713 z"/>
<path transform="translate(0,0)" fill="rgb(1,0,3)" d="M 715.132 401.585 C 712.733 400.469 631.752 355.953 635.101 359.803 C 635.701 359.242 635.812 358.83 636.676 358.869 C 642.179 359.117 724.586 397.03 734.208 402.339 C 728.982 403.809 720.789 402.263 715.132 401.585 z"/>
<path transform="translate(0,0)" fill="rgb(1,0,3)" d="M 660.773 401.557 C 655.443 398.638 653.035 395.804 648.324 392.882 C 633.111 383.446 618.608 373.62 604.159 363.052 C 598.218 358.707 590.432 354.446 585.372 349.366 L 585.263 348.232 C 587.187 348.255 588.806 348.194 590.302 349.628 C 595.915 355.012 614.442 365.413 622.258 370.393 C 638.848 380.964 655.552 393.638 673.127 402.369 C 668.257 404.155 666.249 402.851 660.773 401.557 z"/>
<path transform="translate(0,0)" fill="rgb(1,0,3)" d="M 684.917 400.829 C 679.952 398.787 671.836 392.266 666.372 389.343 C 655.83 383.496 645.428 377.274 635.104 371.05 C 630.411 368.221 616.527 363.652 615.269 358.76 C 618.355 357.223 617.072 357.622 621.107 357.941 C 627.787 363.606 684.817 394.657 694.25 398.479 C 690.267 400.656 689.46 400.604 684.917 400.829 z"/>
<path transform="translate(0,0)" fill="rgb(1,0,3)" d="M 883.977 482.213 C 892.464 481.801 897.092 481.132 905.704 481.589 L 906.886 482.878 L 906.644 481.663 L 907.85 482.311 C 902.001 485.784 894.97 487.654 886.978 492.297 C 885.333 488.993 886.813 487.484 883.977 482.213 z"/>
</svg>